<svg width="57" height="56" viewBox="0 0 57 56" fill="none" xmlns="http://www.w3.org/2000/svg">
<path d="M55.2188 28C55.2188 42.525 43.2844 54.25 28.5 54.25C13.7156 54.25 1.78125 42.525 1.78125 28C1.78125 13.475 13.7156 1.75 28.5 1.75C43.2844 1.75 55.2188 13.475 55.2188 28Z" fill="#FFDD67"/>
<path d="M37.4063 41.9125C32.9531 37.5375 34.9125 39.4625 39.6328 34.825C44.3531 30.1875 42.3938 28.175 46.8469 32.6375C51.3 37.0125 51.4781 41.3 48.8063 43.925C46.2235 46.4625 41.8594 46.2875 37.4063 41.9125Z" fill="#FF717F"/>
<path d="M40.6125 33.8625L46.6688 41.7375L38.7422 35.7875L40.6125 33.8625Z" fill="#E2596C"/>
<path d="M25.3828 21.7875C23.6906 17.325 21.1969 15.05 18.7031 15.05C16.2094 15.05 13.7156 17.325 12.0234 21.7875C11.8453 22.225 12.7359 23.0125 13.1813 22.575C14.7844 20.9125 16.7438 20.2125 18.7031 20.2125C20.6625 20.2125 22.6219 20.9125 24.225 22.575C24.7594 23.0125 25.5609 22.225 25.3828 21.7875Z" fill="#664E27"/>
<path d="M44.8875 21.7875C43.1953 17.325 40.7016 15.05 38.2078 15.05C35.7141 15.05 33.2203 17.325 31.5281 21.7875C31.35 22.225 32.2406 23.0125 32.686 22.575C34.2891 20.9125 36.2485 20.2125 38.2078 20.2125C40.1672 20.2125 42.1266 20.9125 43.7297 22.575C44.175 23.0125 45.0656 22.225 44.8875 21.7875Z" fill="#664E27"/>
<path d="M42.8391 28.875C39.0094 34.2125 34.3781 35.525 28.5 35.525C22.6219 35.525 17.9906 34.2125 14.1609 28.875C13.6266 28.175 12.2016 28.6125 12.5578 29.6625C14.6062 36.6625 21.4641 40.775 28.5891 40.775C35.7141 40.775 42.5719 36.6625 44.6203 29.6625C44.7984 28.6125 43.3734 28.175 42.8391 28.875" fill="#664E27"/>
</svg>
